<svg xmlns="http://www.w3.org/2000/svg" viewBox="0 0 340 440" font-family="-apple-system, BlinkMacSystemFont, 'Segoe UI', Helvetica, Arial, sans-serif">
  <defs>
    <filter id="cs" x="-30%" y="-30%" width="160%" height="180%">
      <feDropShadow dx="0" dy="1" stdDeviation="1" flood-opacity="0.4" />
    </filter>
  </defs>

  <!-- Row 1: Single (A♠) -->
  <g transform="translate(148 14)">
    <rect width="44" height="32" rx="4" fill="#f0f0f0" filter="url(#cs)" />
    <text x="22" y="21" text-anchor="middle" font-size="14" font-weight="700" fill="#222">A♠</text>
  </g>
  <text x="170" y="62" text-anchor="middle" font-size="11" fill="#888" font-style="italic">Single</text>

  <!-- Row 2: Pair (K♠ K♥) -->
  <g transform="translate(124 74)">
    <rect width="44" height="32" rx="4" fill="#f0f0f0" filter="url(#cs)" />
    <text x="22" y="21" text-anchor="middle" font-size="14" font-weight="700" fill="#222">K♠</text>
  </g>
  <g transform="translate(172 74)">
    <rect width="44" height="32" rx="4" fill="#f0f0f0" filter="url(#cs)" />
    <text x="22" y="21" text-anchor="middle" font-size="14" font-weight="700" fill="#c0392b">K♥</text>
  </g>
  <text x="170" y="122" text-anchor="middle" font-size="11" fill="#888" font-style="italic">Pair</text>

  <!-- Row 3: Straight (5♠ 6♥ 7♦ 8♣ 9♠) -->
  <g transform="translate(52 134)">
    <rect width="44" height="32" rx="4" fill="#f0f0f0" filter="url(#cs)" />
    <text x="22" y="21" text-anchor="middle" font-size="14" font-weight="700" fill="#222">5♠</text>
  </g>
  <g transform="translate(100 134)">
    <rect width="44" height="32" rx="4" fill="#f0f0f0" filter="url(#cs)" />
    <text x="22" y="21" text-anchor="middle" font-size="14" font-weight="700" fill="#c0392b">6♥</text>
  </g>
  <g transform="translate(148 134)">
    <rect width="44" height="32" rx="4" fill="#f0f0f0" filter="url(#cs)" />
    <text x="22" y="21" text-anchor="middle" font-size="14" font-weight="700" fill="#c0392b">7♦</text>
  </g>
  <g transform="translate(196 134)">
    <rect width="44" height="32" rx="4" fill="#f0f0f0" filter="url(#cs)" />
    <text x="22" y="21" text-anchor="middle" font-size="14" font-weight="700" fill="#222">8♣</text>
  </g>
  <g transform="translate(244 134)">
    <rect width="44" height="32" rx="4" fill="#f0f0f0" filter="url(#cs)" />
    <text x="22" y="21" text-anchor="middle" font-size="14" font-weight="700" fill="#222">9♠</text>
  </g>
  <text x="170" y="182" text-anchor="middle" font-size="11" fill="#888" font-style="italic">Straight</text>

  <!-- Row 4: Full House (7♠ 7♥ 7♣ 3♦ 3♣) -->
  <g transform="translate(52 194)">
    <rect width="44" height="32" rx="4" fill="#f0f0f0" filter="url(#cs)" />
    <text x="22" y="21" text-anchor="middle" font-size="14" font-weight="700" fill="#222">7♠</text>
  </g>
  <g transform="translate(100 194)">
    <rect width="44" height="32" rx="4" fill="#f0f0f0" filter="url(#cs)" />
    <text x="22" y="21" text-anchor="middle" font-size="14" font-weight="700" fill="#c0392b">7♥</text>
  </g>
  <g transform="translate(148 194)">
    <rect width="44" height="32" rx="4" fill="#f0f0f0" filter="url(#cs)" />
    <text x="22" y="21" text-anchor="middle" font-size="14" font-weight="700" fill="#222">7♣</text>
  </g>
  <g transform="translate(196 194)">
    <rect width="44" height="32" rx="4" fill="#f0f0f0" filter="url(#cs)" />
    <text x="22" y="21" text-anchor="middle" font-size="14" font-weight="700" fill="#c0392b">3♦</text>
  </g>
  <g transform="translate(244 194)">
    <rect width="44" height="32" rx="4" fill="#f0f0f0" filter="url(#cs)" />
    <text x="22" y="21" text-anchor="middle" font-size="14" font-weight="700" fill="#222">3♣</text>
  </g>
  <text x="170" y="242" text-anchor="middle" font-size="11" fill="#888" font-style="italic">Full House</text>

  <!-- Row 5: Quad (J♠ J♥ J♣ J♦) -->
  <g transform="translate(76 254)">
    <rect width="44" height="32" rx="4" fill="#f0f0f0" filter="url(#cs)" />
    <text x="22" y="21" text-anchor="middle" font-size="14" font-weight="700" fill="#222">J♠</text>
  </g>
  <g transform="translate(124 254)">
    <rect width="44" height="32" rx="4" fill="#f0f0f0" filter="url(#cs)" />
    <text x="22" y="21" text-anchor="middle" font-size="14" font-weight="700" fill="#c0392b">J♥</text>
  </g>
  <g transform="translate(172 254)">
    <rect width="44" height="32" rx="4" fill="#f0f0f0" filter="url(#cs)" />
    <text x="22" y="21" text-anchor="middle" font-size="14" font-weight="700" fill="#222">J♣</text>
  </g>
  <g transform="translate(220 254)">
    <rect width="44" height="32" rx="4" fill="#f0f0f0" filter="url(#cs)" />
    <text x="22" y="21" text-anchor="middle" font-size="14" font-weight="700" fill="#c0392b">J♦</text>
  </g>
  <text x="170" y="302" text-anchor="middle" font-size="11" fill="#888" font-style="italic">Quad</text>

  <!-- Row 6: Straight Flush (5♥ 6♥ 7♥ 8♥ 9♥) -->
  <g transform="translate(52 314)">
    <rect width="44" height="32" rx="4" fill="#f0f0f0" filter="url(#cs)" />
    <text x="22" y="21" text-anchor="middle" font-size="14" font-weight="700" fill="#c0392b">5♥</text>
  </g>
  <g transform="translate(100 314)">
    <rect width="44" height="32" rx="4" fill="#f0f0f0" filter="url(#cs)" />
    <text x="22" y="21" text-anchor="middle" font-size="14" font-weight="700" fill="#c0392b">6♥</text>
  </g>
  <g transform="translate(148 314)">
    <rect width="44" height="32" rx="4" fill="#f0f0f0" filter="url(#cs)" />
    <text x="22" y="21" text-anchor="middle" font-size="14" font-weight="700" fill="#c0392b">7♥</text>
  </g>
  <g transform="translate(196 314)">
    <rect width="44" height="32" rx="4" fill="#f0f0f0" filter="url(#cs)" />
    <text x="22" y="21" text-anchor="middle" font-size="14" font-weight="700" fill="#c0392b">8♥</text>
  </g>
  <g transform="translate(244 314)">
    <rect width="44" height="32" rx="4" fill="#f0f0f0" filter="url(#cs)" />
    <text x="22" y="21" text-anchor="middle" font-size="14" font-weight="700" fill="#c0392b">9♥</text>
  </g>
  <text x="170" y="362" text-anchor="middle" font-size="11" fill="#888" font-style="italic">Straight Flush</text>

  <!-- Row 7: Wildcard (7♥ → ?♠ ?♥ ?♣ ?♦) -->
  <!-- Source card with golden border -->
  <g transform="translate(39 374)">
    <rect width="44" height="32" rx="4" fill="#f0f0f0" stroke="#c8922a" stroke-width="2.5" filter="url(#cs)" />
    <text x="22" y="21" text-anchor="middle" font-size="14" font-weight="700" fill="#c0392b">7♥</text>
  </g>
  <!-- Arrow -->
  <text x="98" y="395" text-anchor="middle" font-size="14" fill="#888">→</text>
  <!-- Wildcard placeholders -->
  <g transform="translate(113 374)">
    <rect width="44" height="32" rx="4" fill="#e8e8e8" stroke="#999" stroke-width="1.5" stroke-dasharray="3 2" />
    <text x="22" y="21" text-anchor="middle" font-size="14" font-weight="700" fill="#222">?♠</text>
  </g>
  <g transform="translate(161 374)">
    <rect width="44" height="32" rx="4" fill="#e8e8e8" stroke="#999" stroke-width="1.5" stroke-dasharray="3 2" />
    <text x="22" y="21" text-anchor="middle" font-size="14" font-weight="700" fill="#c0392b">?♥</text>
  </g>
  <g transform="translate(209 374)">
    <rect width="44" height="32" rx="4" fill="#e8e8e8" stroke="#999" stroke-width="1.5" stroke-dasharray="3 2" />
    <text x="22" y="21" text-anchor="middle" font-size="14" font-weight="700" fill="#222">?♣</text>
  </g>
  <g transform="translate(257 374)">
    <rect width="44" height="32" rx="4" fill="#e8e8e8" stroke="#999" stroke-width="1.5" stroke-dasharray="3 2" />
    <text x="22" y="21" text-anchor="middle" font-size="14" font-weight="700" fill="#c0392b">?♦</text>
  </g>
  <text x="170" y="422" text-anchor="middle" font-size="11" fill="#888" font-style="italic">Wildcard (current rank)</text>
</svg>
